<svg width="16" height="16" viewBox="0 0 16 16" fill="none" xmlns="http://www.w3.org/2000/svg">
<path fill-rule="evenodd" clip-rule="evenodd" d="M13.549 7.98515C14.168 7.38837 14.5883 6.60027 14.7121 5.72647C14.6702 5.74511 14.628 5.76296 14.5855 5.78C14.5507 5.79395 14.5156 5.80736 14.4804 5.82022C14.0222 5.9875 13.5299 6.06258 13.0332 6.03601L13.0229 6.03544C12.141 5.98574 11.3088 5.61885 10.6866 5.00532L10.6822 5.00098C10.1185 4.4432 9.76447 3.7185 9.67249 2.94456C9.66247 2.86023 9.65556 2.77533 9.65183 2.68998C9.63145 2.22374 9.70674 1.76252 9.86884 1.33196C8.5751 1.59216 7.51822 2.44961 6.99678 3.58227C9.1447 3.95229 10.9023 5.53627 11.6062 7.63935C11.7155 7.62982 11.8259 7.62495 11.9375 7.62495C12.5117 7.62495 13.0571 7.7537 13.549 7.98515ZM5.81294 3.50415C6.52251 1.53572 8.44146 0.125 10.6974 0.125C11.2466 0.125 11.7759 0.208616 12.2726 0.363539C11.8154 0.552088 11.4295 0.87247 11.165 1.27577L11.1561 1.27479C10.8958 1.68171 10.7655 2.1584 10.7867 2.64303C10.7891 2.69788 10.7934 2.75247 10.7996 2.80671C10.8603 3.33678 11.101 3.83358 11.4856 4.21616L11.49 4.22051C11.9167 4.64273 12.4888 4.89458 13.0948 4.92701L13.1052 4.92754C13.4702 4.94556 13.8316 4.88316 14.1639 4.74842C14.38 4.66078 14.5838 4.54255 14.7683 4.39593L14.7691 4.39685C15.1099 4.12487 15.3738 3.76482 15.5243 3.35236C15.7507 3.92133 15.875 4.54023 15.875 5.1875C15.875 6.51224 15.3546 7.71814 14.5027 8.62041C15.3429 9.37691 15.875 10.4983 15.875 11.75C15.875 14.0281 14.1121 15.875 11.9375 15.875L11.9375 15.875H6.04715V15.875L6.03125 15.875C2.76932 15.875 0.125 13.1048 0.125 9.6875C0.125 6.3468 2.65215 3.62446 5.81294 3.50415ZM6.0613 14.7499L6.03125 14.75C3.43938 14.75 1.25 12.5333 1.25 9.6875C1.25 6.84166 3.43938 4.625 6.03125 4.625C8.04848 4.625 9.82191 5.96772 10.5091 7.90475L10.5078 7.90528C10.6339 8.26008 10.7234 8.63383 10.7715 9.02138C11.1304 8.8464 11.5266 8.74995 11.9375 8.74995C13.442 8.74995 14.75 10.0432 14.75 11.75C14.75 13.4567 13.442 14.75 11.9375 14.75L11.9375 14.75H6.0613V14.7499Z" fill="#474747"/>
</svg>
