<svg width="16" height="16" viewBox="0 0 16 16" fill="none" xmlns="http://www.w3.org/2000/svg">
<path fill-rule="evenodd" clip-rule="evenodd" d="M12.5615 6.48801C13.4045 6.46059 14.205 6.11803 14.8027 5.53033C15.1108 5.2233 15.3582 4.85681 15.5256 4.44985C15.7521 5.1028 15.875 5.80342 15.875 6.53248C15.875 9.40146 13.9714 11.83 11.347 12.6466C11.3674 12.7832 11.378 12.9231 11.378 13.0655C11.378 14.6196 10.1181 15.8794 8.56403 15.8794C8.51146 15.8794 8.45922 15.878 8.40736 15.8751H4.34657V15.8743L4.34303 15.8743C2.01186 15.8743 0.12207 14.0024 0.12207 11.6933C0.12207 9.83206 1.34992 8.25486 3.04707 7.7131C2.97511 7.33043 2.93749 6.93581 2.93749 6.53248C2.93749 2.99373 5.83365 0.125 9.40624 0.125C9.91094 0.125 10.4021 0.182252 10.8736 0.290558C10.479 0.495941 10.1311 0.777009 9.84978 1.1142C9.32002 1.7675 9.06022 2.59627 9.12399 3.43288C9.18878 4.28286 9.58255 5.07521 10.2231 5.6445C10.8636 6.21379 11.7014 6.51599 12.5615 6.48801ZM4.15519 7.51641C4.21746 7.51371 4.28008 7.51234 4.34303 7.51234C6.16691 7.51234 7.72061 8.65818 8.31044 10.2628C8.39397 10.2553 8.47856 10.2515 8.56403 10.2515C9.57647 10.2515 10.464 10.7862 10.9597 11.5886C13.0141 10.9729 14.5385 9.16818 14.7297 6.99529C14.0882 7.37147 13.3563 7.58603 12.5988 7.61068C11.4464 7.64816 10.324 7.24327 9.46578 6.48053C8.60759 5.71779 8.08001 4.65618 7.9932 3.51736C7.93597 2.76652 8.07326 2.0204 8.38348 1.34649C5.915 1.81885 4.06249 3.96873 4.06249 6.53248C4.06249 6.86851 4.09432 7.19744 4.15519 7.51641ZM4.35778 14.7493L4.34303 14.7493C2.62306 14.7493 1.24707 13.371 1.24707 11.6933C1.24707 10.0156 2.62306 8.63734 4.34303 8.63734C5.67829 8.63734 6.80624 9.46801 7.24402 10.6246L7.24691 10.6231C7.37226 10.9563 7.44078 11.3169 7.44078 11.6935C7.44078 11.7311 7.44009 11.7686 7.43873 11.8059C7.73746 11.5389 8.13178 11.3765 8.56403 11.3765C9.49682 11.3765 10.253 12.1327 10.253 13.0655C10.253 13.9982 9.49682 14.7544 8.56403 14.7544H8.56249V14.7501H8.44275L8.43104 14.7493H6.30922L6.30988 14.7501H6.30575L6.30509 14.7493H4.35778Z" fill="#474747"/>
</svg>
