<svg width="16" height="16" viewBox="0 0 16 16" fill="none" xmlns="http://www.w3.org/2000/svg">
<path fill-rule="evenodd" clip-rule="evenodd" d="M7.4375 1.8125V0.125H8.5625V1.8125H7.4375ZM10.6066 2.36027L11.4504 0.898849L12.4247 1.46135L11.5809 2.92277L10.6066 2.36027ZM8 11.9375C10.1746 11.9375 11.9375 10.1746 11.9375 8C11.9375 5.82538 10.1746 4.0625 8 4.0625C5.82538 4.0625 4.0625 5.82538 4.0625 8C4.0625 10.1746 5.82538 11.9375 8 11.9375ZM8 13.0625C10.7959 13.0625 13.0625 10.7959 13.0625 8C13.0625 5.20406 10.7959 2.9375 8 2.9375C5.20406 2.9375 2.9375 5.20406 2.9375 8C2.9375 10.7959 5.20406 13.0625 8 13.0625ZM14.1875 7.4375H15.875V8.5625H14.1875V7.4375ZM14.5387 3.57536L13.0773 4.41911L13.6398 5.39339L15.1012 4.54964L14.5387 3.57536ZM3.57536 1.46135L4.41911 2.92277L5.39339 2.36027L4.54964 0.898849L3.57536 1.46135ZM2.36023 5.39339L0.898815 4.54964L1.46132 3.57536L2.92273 4.41911L2.36023 5.39339ZM7.4375 14.1875V15.875H8.5625V14.1875H7.4375ZM1.8125 7.4375H0.125V8.5625H1.8125V7.4375ZM0.898785 11.4504L2.3602 10.6066L2.9227 11.5809L1.46128 12.4246L0.898785 11.4504ZM4.41915 13.0773L3.5754 14.5387L4.54967 15.1012L5.39342 13.6398L4.41915 13.0773ZM11.4504 15.1012L10.6066 13.6398L11.5809 13.0773L12.4246 14.5387L11.4504 15.1012ZM13.0773 11.5809L14.5387 12.4246L15.1012 11.4504L13.6398 10.6066L13.0773 11.5809Z" fill="#474747"/>
</svg>
