<svg width="16" height="16" viewBox="0 0 16 16" fill="none" xmlns="http://www.w3.org/2000/svg">
<path fill-rule="evenodd" clip-rule="evenodd" d="M7.4375 1.8125V0.125H8.5625V1.8125H7.4375ZM11.8598 11.2759C12.2598 11.7617 12.5 12.384 12.5 13.0624C12.5 14.6157 11.2408 15.8749 9.68751 15.8749L9.66688 15.8749H5.49055V15.8748L5.46876 15.8749C3.1388 15.8749 1.25 13.9861 1.25 11.6561C1.25 10.2726 1.91598 9.04462 2.94486 8.27529C2.93997 8.18415 2.9375 8.09236 2.9375 8C2.9375 5.20406 5.20406 2.9375 8 2.9375C10.7959 2.9375 13.0625 5.20406 13.0625 8C13.0625 9.24934 12.6099 10.393 11.8598 11.2759ZM10.9859 10.5669C10.5975 10.3644 10.1559 10.2499 9.68751 10.2499C9.21192 10.2499 8.7639 10.368 8.37116 10.5764C8.4964 10.9126 8.56485 11.2764 8.56485 11.6562C8.56485 11.7064 8.56366 11.7562 8.5613 11.8057C8.86 11.5378 9.25473 11.3749 9.68751 11.3749C10.6195 11.3749 11.375 12.1304 11.375 13.0624C11.375 13.9944 10.6195 14.7499 9.6875 14.7499V14.7499H9.67154L9.64992 14.7495H5.51561C5.50002 14.7498 5.4844 14.7499 5.46876 14.7499C3.76012 14.7499 2.375 13.3648 2.375 11.6561C2.375 9.94748 3.76012 8.56236 5.46876 8.56236C6.79797 8.56236 7.9314 9.40063 8.36923 10.5773C8.69667 10.4033 9.06259 10.292 9.45092 10.2597C8.87456 8.61601 7.3093 7.43736 5.46876 7.43736C4.98068 7.43736 4.51196 7.52025 4.07591 7.67271C4.24225 5.65121 5.93559 4.0625 8 4.0625C10.1746 4.0625 11.9375 5.82538 11.9375 8C11.9375 8.98068 11.579 9.87762 10.9859 10.5669ZM15.875 7.4375H14.1875V8.5625H15.875V7.4375ZM13.0773 4.41911L14.5387 3.57536L15.1012 4.54964L13.6398 5.39339L13.0773 4.41911ZM11.4504 0.898849L10.6066 2.36027L11.5809 2.92277L12.4247 1.46135L11.4504 0.898849ZM4.41911 2.92277L3.57536 1.46135L4.54964 0.898849L5.39339 2.36027L4.41911 2.92277ZM0.898815 4.54964L2.36023 5.39339L2.92273 4.41911L1.46132 3.57536L0.898815 4.54964ZM0.125 7.4375H1.8125V8.5625H0.125V7.4375ZM13.0773 11.5809L14.5387 12.4246L15.1012 11.4504L13.6398 10.6066L13.0773 11.5809Z" fill="#474747"/>
</svg>
